<?xml version="1.0" encoding="UTF-8"?>
<svg id="Capa_2" data-name="Capa 2" xmlns="http://www.w3.org/2000/svg" viewBox="0 0 501.39 142.36">
  <defs>
    <style>
      .cls-1 {
        fill: #28d2db;
      }
    </style>
  </defs>
  <g id="Capa_1-2" data-name="Capa 1">
    <g id="uuid-1fb8b8d0-c33e-44b2-9bc5-79a539e83192" data-name="Capa 1-2">
      <g>
        <path class="cls-1" d="M493.18,33.33c3.4-.24,2.46-1.32,8.17-3.15-.38-.22-1.68-.66-2.16-.4l-1.14.58c-.2.1-.67-.12-.74-.34-.45-1.35,2.51-3.28,4.01-4.26l.08-10.3c0-.29-.03-1.25-.25-1.16l-1.1.41c-.2.07-.68.62-.54.78l.72.87-2.64,2.66c-.48.49-.92,1.66-1.32,2.66l2.69.33c.1.08.42.72.21.77l-1.08.27c-.1.02-.64-.13-.79-.18l-2.66-.91c-.58-.19-1.25.72-1.56,1.48l-2.56-.94c-.72-.39-.43-.02.39.76.09.63.16,1.7.05,2.27-.24,1.32-3.6,1.48-5.36.03-1.17,1.55.15,3.04,1.24,4.09l-1.75,3.57c-.03.13-1.59-.72-1.35-1.14l1.15-2.07-3.01.13-.98-1.27c-.16-.2-.82.75-.61.89.28.2.58.36,1.18.66l2.05,1-1.2,1.03c-.74.63,1.9.96.89,1.37l-1.24.51c-.47.19-1.99.16-2.53.06-.16-.04.27-.76.42-.76-.12-.11-.48-.38-.7-.55l-1.18.75c.94,1.49,1.62,2.32,3.11,3.14l.17,1.17-1.02,1.17c-.19.21-.7-.66-.61-.94.1-.35.4-.98.2-1.11l-1.37-.93-1.31-.93c-1.2-.84-3.44,1.82-4.48,3.65-.6,1.07-3.36,1.44-4.42.99l-.03-1.54c-.01-.3-.75.11-1.22.27l-2.21.73c-.33-.61-.49-.91-.56-1.01-2.1,1.79-3.56,2.49-6.06,3.06l-.35,2.06c-.69.59-.88,1.66-.84,2.52-.97-.18-2.84-.78-3.47-.17l-2.15,1.99c.15.02.56.07.86.11l.84.1c.22.03.15.58.08.95-4.47-.46-2.14-1.1-4.68.29-.23.13.53.55.8.78.21.19.55,1.33.26,1.36l-2.23.24c.28-.55.43-.87.48-.98-.92-.64-1.67-1.02-1.65-1.36l.1-1.67-1.65.38c-.34.08-.05.9.1,1.93l-7.3.62c-.36-2.36-4.14-2.2-4.13-2.14.31,2.5-.91,2.72-3.36,4.66l-1.49-1.03c-.88-.61-2.24,1.58-2.54.79-.08-.22-.3-.87-.24-1.11l.5-2.31c.7.33,1.58.66,1.91.37l1.42-1.27-2.2-1.04c-.43-.2.35-1.52.69-1.92l-.3-.98,2.37.44c-.41-3.61-5.71.55-6.45-2.15,2.27-.45,3.57-1.22,4.55-3.32l.14.89-.23.99c-.2.89,3.51.95,4.86-.21.99-.86,1.56-2.46,1.7-3.81l-1.33-1.44c.38-.25.98-.64.99-.64,1.42.24,2.07.21,3.21.07l.16,1.37c.08.71-.61-.04-2.37,2.22-.26.33.72,1.1,1.12,1.18.11.02.74.02.86.03.17.02,0-.16-.42-.82l1.68-1.56c.63-.53,1.37-.94,2.55-1.53-.18-.07-.43-.16-.64-.23-.61-.15-1.28-.3-1.19-.63l.42-1.54c.11-.4,1.57.36,2.02.21,2.09-.69,5.35-2.28,7.32-3.4l-1.14-.78c-.26-.18.72-1.22.99-1.07l3.62,2.04-.73-2.32c-1.28-.06-3.8-.24-4.19-1.25l-.46-3.59c.56-1.76,2.5-3.3,1.94-5.41-.42-1.62-3.2-3.1-4.66-3.32-.41-.06-1.07,1.48-.7,1.63l2.02.77.77.29c.2.07-.26.65-.43.78-3.38,2.54-4.38.14-7.23,2.7-.15.13.21.43.36.75l.95,2-4.03-.07-1.71,1.9-3.3-.03c-.06.18-.09.27-.13.36l-.46,1.1,1.34.56,1.15,1.84c.16.27-.02,1.02-.24,1.24-1.56,1.53-.02-.33-.96,3.98-.07.34-1.38-.05-1.74.11-6.39,3.02-6.18.74-7.95,3.33-.15-.07-.37-.16-.59-.25l-2.89-.91c-.18-.06-.87.37-.84.58l.18,1.14-4.17.98.99.19,1.09.21c.15.03.2.27.05.34l-1.06.45c-1.03.44-.41-.01-1.06.94l-.33.48-.47-.55-.47-.54c-.05-.06-.52-.22-.6-.19l-.65.25c-1.14.46-2.41,2.05-2.77,2.86l.94.71.75.56c-.11,0-.39.06-.65.1-1.39-.25-2.56.1-3.89.9-.15.02-.6.02-.55-.11l.53-1.37-1.8-1.72c-.09-.18-.42-.68-.52-.84-.09-.17-.55.13-.58.31-.25,1.48,3.08,3.43,1.14,4.56-2.28,1.33-4.18.1-5.7-1.4-3.73,1.08-1.84,4.17-5.23,4.17l-.28-.93c-.03-.09.05-.66.09-.75l.33-.71c.33-.72-1.03.33-1.23-.12l-.5-1.15-.33-.76c-.09-.19-.52.07-.64.23l-1.25,1.76c-.52.22-.83.26-.8.44.06.31.2,1.04.23,1.17l1.51.1-1.6.85c-.36.19.19,1.25.42,1.6l.45.71c-.08.16-.2.41-.25.57-.08.22-.87-.3-1.01-.51l-1.97-2.92-2.28,1.99-1.98-2.84c1.42.27,2.41.56,3.53-.72l-2.43-.49c.17-.82.29-1.48.21-1.21-1.56.75-2.36,1.37-2.74,2.27l-2.36,5.64c-.36-.04-1.53-.31-1.44-.55l.63-1.55-2.95.55c-.16.03-.66.23-.74.34-.13.16-.16.77-.09,1l1.4,4.51c-.73,1.18-2.71.41-4.05-.54-1.06-.75-2.42,1.28-2.94,2.55-2.46-.06-1.93-3.25-3.54-5.74-.77.47-1.69,1.28-1.77,1.9-.09.76.69,2.01,1.19,2.64l.97,1.23c.21.27-.94.97-1.13.68l-.92-1.41c-.89-1.35-2.89-.39-2.97-.95l-.17-1.23c-.09-.63,2.24.63,2.23-.48-.02-2.59-4.01-2.3-3.78-3.51l.36-2c.24-1.29-1.5-1.03-1.09-1.37l.9-.75c2.27-1.91,3.99,1.36,4.9.85,2.48-1.41,2.96-1.44,4.28-2.35.65-.44.75-2.06.22-3.15l2.17-1.17.11-.5c.03-.17.22-.91.36-.79l1.18.92c.55.41,1.93.26,2.51-.13-1.49-.74-2.39-1.52-2.15-3.56,2.32.67.9,2.86,1.96,2.75.29-.04.94-.32.88-.61l-.5-2.74c-.04-.25-.83-1.21-.58-1.2l1.76.05c.58.02.44,1.65.16,2.7-.91.63.09.78.87.66l.65-.51c.12-.09.42-.39.32-.48l-.78-.78,7.16-2.01-2.03-1.32-1.17-.85c-.25-.19.77-.97,1.04-1.16l.62-.42c.67-.44,1.98-.27-1.11-.95l.72-1.86c.16-.4.11-1.13.39-1.04.29.09,1.16.47,1.3.73l1.25,2.25c.04.07-.27.79-.33.97.21,1.07.42,1.02.72-.04,2.35-4.73-3.71-6.62.07-10.54.65-1.04.26-3.82.65-5.02.58-1.82.85-2.98,1.14-5.31l.87,1.91,2.07-1.08c.17.04.35.08.5.12l-1.84-2.74c2.46-.97,6.42,1,5.84,1.49l-.87.74-2.09,1.77c-.55.45.02,1.93.67,2.59l.59-2.55c1.62-.29,2.54-.85,3.67-1.79.12-.01.88-.15,1-.17.39-.06.75-1.25.45-1.49l-1.27-1.06c.98-.29,2.39-1.4,3.09-2.41.15-.21,1.24-.19.8.1-.2.14-.33.69-.51,1.58l2.83-1.34,1.17-.13c.6-.07-.59-1.39-1.1-1.18l-1.38.57c-.29.12-.61-.93-.78-1.28-.95-2.05-4.31-1.38-5.49-.4-.57.47-2.39-.28-2.44-.59,1.12-1.38.36-3.12-.21-4.17-.09-.16-.22-.31-.39-.46-.91-.8-2.77-1.37-3.45-1.1-.11.37-.24.75-.39,1.1-.33.82-.79,1.58-1.37,2.24l-.59.65c-.13.14-.44-.3-.81-.63-2.45-2.19-4.03,2.85-6.22,2.22l-5.56-1.58-2.71,1.49-.51-1.01c-.09-.17-.42.47-.72.93l-.89-.23,2.19-4.08.07-.13c-.2.04-.4.09-.6.13-2.94.64-4.92,1.04-7.34,1.74-1.23.35-5.43,2.36-8.03-1.19-.75.34-2.24,1.79-3,1.54-.91-.28-2.02-.74-3.17-1.19l.15,2.33c0,.11-.07.62-.16.58l-.81-.34c-5-2.16-8.41,2.74-10.62,3.53-.5.18-1.41-.98-1.94-1.04l-3.08-.34c-.25-.02-.97.3-1.23.42-.22.11.11.38.63,1-.92,1.01-2.95.37-3.79-.93-.38.58-1.01,1.59-1.55,1.66-.7.07-1.75-.17-3.07-.5-1.25.75-1.04,4.72-1.52,4.28l-.73-.68c-.59-.55-2.33-1.23-3.17-.75l-4.15,2.4-1.65-5.59-.86,3.85-.6-1.01c-.16-.28-.91-.25-2.04-.36l.02,1.1-1.54,2.22c-1.01,1.45-1.76-.34-3.18-.3-.9.02-.81,3.77-2.31,2.89-.3-.17-.56-.77-.7-1.21-.11-.5-.14-.64-.14-.64l-1.55.84s2.04,4.43-.12,1.68l-2.67.19.78-2.93.9.17c.82,2.45-.12-1.08-.13-1.08-.48-.29-1.79-1.37-2.34-1.43l-6.69-.84-.58-3.01c-.04-.19-.16-.83-.12-.93l.47-1.17c.05.07.26.36.5.69.57.9,1.21,1.98,1.3,2.71l.12.89c.11.78.1-.95,3.4-.42l4.75.75,4.72.75c.33-.67,1.07-2.11,1.67-2.28l3.06-.86c.19-.29.32-.51.37-.6l-3.8-1.14c-.65.13-1.26,1.78-1.71,3.39l-.87-.86c-.19-.19-.95.1-1.04.11-.59-1.24-1.41-1.9-2.94-2.65-1.11.13-.88-.03.07-.49,2.47-1.43,7.94,1.56,6.09-2.1-.2-.4-.72-.26-1.65-.29-2.48-1.9,1.4-.94,2.25-2.52h-64.3c.25.35.43.72.45,1.02.1,1.17-.79,2.39-1.85,2.71-.13.34-.06,1.18-.36,1.24l-1.54.29.47.58c.19.23.39.54.19.62l-1.42.56c-.35.13.48,1.47.23,1.77l-1.11,1.29,3.21.6-5.91.96c.56.83.94,1.13.87,1.45l-.38,1.71,3.77.39c0,.31-.36,1.23-.69,1.52-.37.35-1.64.32-2.12.06l-3.42-1.87c-.61-1.24-1.93-2.84-3.04-2.63.05,1.08.13,2.41-.01,3.09-.14.68-1.93,1.02-2.62,1.11l-1.07.13c-.19.03-.17.74.02.79l1.02.23c.36.09,1.25.48,1.42.59-1.24.36-2.05.45-2.46.94-.56.65-.51,2.39-.37,3.55l3.42.11-.4,1.73c-.08.36-1.23.43-1.67.44l-2.58.03c-.51,0-.66-1.44-.95-1.89l-3.91-.08c-1.1-.02-2.02.51-3.62-.09l3.17-4.26c1.93,1.94,2.74,2.81,4.67,3.87l-.96-1.92c-.2-.39.31-1.4.52-1.73-.49-.15-1.5-.19-1.55-.62l-.34-2.59c-.75-.47-2.32-1.47-3.13-1.81l-3.42-1.38-2.74.84.65-2.81c-.66-.71-1.53-1.76-1.65-2.49-.35-2.36,3.51-5.58.97-5.45-.59.03-1.02,1.02-1.79,2.15l-.51-3.53s-.41.68-.57.93-.75.17-.81-.11l-.3-1.43c-.06-.28,1.27.11,1.66.21l1.35-.8H45.99c-.52.3-1.08.61-1.51.86-.52.3-1.61-.25-2.32-.86-.19-.15-.35-.31-.47-.45l-6.31.45-11.07.8c.78,2.32-.81,3.84-.94,3.65l-.83-1.17-.68.47c-.3.21-.3,1.23-.14,1.56.29.6,2.69-.47,2.87.38l.24,1.18,1.78.42c.46.1.39,1.39.46,1.86l1.66-.71c.4-.17,1.22.74,1.57,1.15,2.36,2.78,4.15-.18,4.89.97l1.32,2.09c.74-.82,1.33-2.06,1.91-3.77-.18-.05.64-.19.63.04l-.03,1.4c0,.35-.48,1.44-.15,1.56l1.65.53c.28.1,1.04.51,1.3.65.25.12.62-.62.93-.97.9,1.27,2.46,1.79,3.98,1.07l6.9-3.28c1.34,1.46,2.37,2.39,3.89,3.53l-1.4,1c1.3,1.29,2.79-.8,2.48-1.59l-1.29-.91c-.3-.21.3-1.03.31-1.38-.36-.63-.54-2.4.37-2.41,1.28-.01,1.84,1.98,2.11,3.19.55-1.1,1.36-2.09,2.61-2.65l1.06,2.78.81-2.38,2,.83c.47.19,1.48-.67,1.94-1l.86-.65c.15-.11.44.55.36.72-.35.7-.43,2.29-.03,2.87.69-1.04.77-1.33,1.16-1.2.59.19,1.97.8,1.72,1.11l-.92,1.1c-.24.29-.06,1.21.03,1.42l1.01-.87c.17-.14.79.5.62.66l-.82.73c-.22.2-.58.99-.38,1.21l.73.82c.25.29,1.23-.5,1.43-.85l.54-.87c.42-.69,2.4,3.31,5.57.71l.9,3.83.54-2.66,2.5-.16.05.9c0,.32-1.39.52-1.43.84-.17,1.71.82,5.53,2.92,5.97-.19-.89-.54-2.77-.61-3.51-.03-.37,1.21-.45,1.37-.15.19.36.12.94.02,1.88l1.41,1.93-1.01,5.31-1.97.55c-.37.1.38,1.35.18,1.69l-1.13,1.87-1.12-.71c-1.2.18-2.55.08-3.61-.42,1.24-1.11,2.23-1.19,3.76-1l-2.64-2.27,2.57-.71-.91-.92c-.74-.75-1.17,1.56-2.99.67-.37-.18-.59-1.42-.2-1.56l2.85-1.08c-.83-.82-1.82-1.51-2.48-1.36-1.05.25-2.85,2.24-3.23,3.25-.16.04-.97-.09-1.23.16l-1.79,1.7c-.2-2.53-2.52-4.61-4.54-4.02-.69.2-2.26,1.64-2.57,1.05l-.85-1.62c-.2-.39-1.38-.03-1.99.07-2.22-1.59-5.37-2.73-8.01-3.01l-2.39,4.01-1.5-3.72c-.31-.77-1.54-2.05-2.29-2.18-.79-.14-2.11.97-2.82,1.32-.97-.91-2.03-1.59-3.21-2.05l-5.04-1.9-3.12,3.16-4.74-2.97-2.03,2.71c-1.4-.76-2.24-.83-4.04-1.01-.05-.06.94-.71,1.35-.84.19-.06,1,0,.93-.16-.07-.16-.24-.64-.35-.79l-.68-.96c-.16-.23-.82.77-.85.79l-.94-1.9c-1.24.98-2.15,1.53-3.38,1.07l1.54-3.2c-1.36.2-2.67.43-3.95.72l-2.7.6-.29-1.82-1.31.47-3.49,4.91c.14.02.3.07.48.15.29.13.03,1.35-.27,1.37l-1.18.08-3.15,6.83c.18.1.29.2.31.29l-.34,4.63s-.02-.01-.03-.02l5.49,14.81c.07-.07.14-.14.21-.22l2.78,1.13-1.17,1.43c-.37.45-1.13.08-1.82-.29l-7.7,16.31,1.19.73c-.66,1.35-.68,2.05.33,3.05l3.93-4.51,4.5.55.58-1.97c.11-.39,1.36-.28,1.69-.02l2.91,2.38.35-2.12c.06-.39,1.24-.76,1.66-.75l7.32.29-.58-3c1.98.27,5.25,3.51,5.94,2.3l.9-1.59,2.58,1.41,3.49,1.87,1.21-1.95.02,2.51,2.6-2.28c.23-.18.48-.35.62-.47.18-.18-.02-.86-.11-1.1-.09-.24-.87.23-1.52.42-.48-.37.55-1.92,1.26-2.01.81-.11,2.57.98,2.22,1.62-.12.22-.87.63-.77.78l.69,1.03.88,1.29c.22.32,1.23-.59,1.62-.56.96.09,2.88.3,4.21.44l.68,2.03,1.23-1.89,5.16.99-.42.79c-.09.16-.07.73.1.66.18-.08.72-.36.86-.49l1.01-1.02c.25-.25.99.7,1.22.93l2.76-2.95c1.3,2.79,3.09,4.58,5.49,5.68l.19-1.31c.02-.18.6-.35.67-.19l.39.95,1.17-1.59c1.13-.37,1.73-.77,2.65-1.71l1.73,4.06c1.74-.7,2.59-2.19,1.92-3.77l2.56.18,4.29.29,4.49-2.94,1.11-2.47c.98.29,1.93.51,2.93.63l1.12.12c.32.04.59-1.3.9-1.41.42-.16,1.69.67,1.94.29l1.27-1.82,2.57.44-1.18.95,2.38.91c-.66.47-1.12.65-.99.84l.48.74c.13.18,1.04-.27,1.02-.51l-.26-2.59,1.09-.18c.34-.05.68.65,1.01,1.06l2.35,2.95c-.19.39-1.03,1.64-.68,1.84l1.89,1.08-3.23.73,2.65,3.72-6.15-1.79-3.88,2.18c-.22.13-.44,1.14-.6,1.35-.19.29-.85,0-1.66-.24l-3.02,2.21c-1.22.88-2.61,1.05-4.22.27l4.15-4.51c-.7-1.03-2.17-.48-3.16.38-1.09.96-1.61,1.81-1.5,3.06-.45-.1-1.59-.56-1.73-.23l-.87,1.98-5.17.22c-.4.02-1.54-.55-1.73-.25l-.74,1.2,2.61,1.09c-1.38,1.42-2.54,1.45-4.25.92l-1.92,1.83c-3.94-.42-1.63,1.76-9.28,2.41-.45.42-1.16,1.63-1.76,1.48-.76-.19-1.62-.46-2.93-.89l.36,5.13c-3.54-2.34-6.1-.15-8.69-1.7-1.48-.89-2.11-.04-3.76-.07l-5.96-.09.51,1.46c.21.63,3.13-1.87,5.96,1.01.29.29-.21,1.29-.6,1.44-1.7.68-1.29-2.33-4.36-2.11-1.99.13-2.9-1.42-4.44-2.73-.76-.64-2.73,1.45-2.7,2.16l5.57,1.18-1.71,1.98,1.15,1.14-3.56.41,1.23-1.56-1.5-.88-1.59-.94c-.39-.23-1.85.36-1.72.6l.9,1.13c.15.18-.27.87-.5.83l-.92-.15-1.25-.2c-.37-.06-.4.94-.44,1.78l-2.32.34c-.55.09-1.24.81-1.63,1.63l-5.88,1.74.22,2.76c-.45.21-1.44.62-1.23.89,1.66,2.02,2.69,1.43,2.05,1.9-2.06,1.51-4.18-.28-6.08-1.8l3.03-1.54-3.99-.42c-.02.99.24,1.97-.13,2.12l-1.87.77c-.57,1.35-1.25,3.28-3.3,3.54l1.62.75-2.66,1.44-.89.47c-.23.13-.36.7-.15.86.21.16,1.22.5,1.35.73.8,1.35-1.78,4.58-3.41,4.33-.33-.05-1.06-1.28-1.37-1.15l-1.92.82c-2.06.89-1.38-4.23-2.67-2.95l-.79.79c-.39.38,2.34.97.64,6.27l-2.42-1.24.07,10.51,5-1.37-1.23,1.81c-.26.47-.79,1.48-1.19,1.32l-1.83-.77c-1.08.28-1.15,4.54-.33,5.17.26.21,1.06.09,1.3-.14l1.93-1.81-1.59-.3c-.27-.05-.29-.93-.25-.99,1.15-.09,1.95-.2,2.89-.54l1.79-.63c.45-.16-.06-1.44-.22-2.39-.13-.23,1.15.32,1.59.67.47.37,2.11-.49,2.17-1.1l.24-2.25c1.47-.11,3.29-.46,4.42-.87-.99-.37-4.41-3.85-4.45-4.1-.08-.58.44-1.88.75-2.4.24.11.81.56,1.03.46l.88-.36.87,1.09c.21.27,1.03-.57.83-.83-.52-.65-1.43-2.07-1.79-2.85l4.24-1.22-.09,2.34c0,.41.99.5,1.16.6l-.55,1.97,4.5-1.58c-.74-.52-1.54-.87-1.58-1.23l-.18-1.52c-1.08.55-1.96.97-2.53,1.09.21-4.72,6.39-3.02,7.61-5.47,5.23.83,2.68-2.66,6.55-1.88l.13,1.89c.04.61,2.35.83,3.54.76.43-.02.29-1.08.13-1.74-.21-.95-.75-1.35-2.14-1.82,0,0,.09-.71.13-1.02.05-.4,1.41-.68,1.9-.68l5.89-.1-3.4-1.77.68-1.45c.52-1.12,3.49,1.74,5.04.61.57-.41,1.12-1.37,1.73-2.23l.67-.96c.16-.23.63.84.83,1.19l3.83-2.71c.31-.22.9-.74,1.19-.95.28-.22,1.17-.05,1.67.02.26.04.15-.71.11-.98-.12-.73-1.2.65-2.51-.16-.28-.17-.62-.72-.53-1.04.68-2.52,4.77,2.09,9.36-1.8l-.69-1.86,2.59.55-.62,1.33c2.33-.6,4.63-.94,7.04-.81l5.65.31.89,3.47c.86,1.09,1.32,2.23,1.17,3.45l-1.59-.87-1.79,4.41-1.46-1.37.7,4.9c.8.4,1.6,1.52,1.33,2.07-1.96-.37-3.08-.41-5.31-.35.81-.73,1.02-1.09.1-.72-1.32.53-2.2.81-3.86.61.78,1.39.8,3.28-.39,4.52l-2.52-1.25-.05,1.41c-.02.38,1.15-.02,1.57.04.79,2.55-4.22.78-4.53,3.1-.09.63.6,1.38,1.35,2.26-2.16.22-3.24-.89-5.62-2.45l.74,3.55-2.94-.1c.05.22.19.86.21.93,4.64-.87-1.97,2.87,1.45,6.02.37.34.59,2.01.19,2.35-.45.39-1.32.5-2.25.65l2.36,3.02-2.89-.84-.58,3.99c-.15,1.01,2.1,2.09,2.98,2.47-.24,1.07-1.62.72-2.43.08-.49-.38-1.52,1.27-1.31,1.92l4.28-.53.38-2.51,1.43,1.91,2.91-3.45,1.37,1.11c.27-.57.55-1.03.48-1.32-.08-.3-.9-.82-.93-1.12l-.17-1.52c-.03-.3-.63-.46-1.32-.8l.58-4.1,1.11-.57c.22-.11-.32-.88-.45-1.08l-.44-.73c-.08-.13.39-.38.62-.49l.88-.48c.16-.09-.29-.64-.42-.93.78-.61,2.51-.89,3.15-.31l-1.06.59c-.15.08-.23.37-.08.44l.97.41c.3.13,1.18.61,1.34.33l.66-1.1,1.93.9c.41.19,1.32-.57,1.57-.94l1.14-1.68c-1.35-.64-4.45,1.49-4.63.23-.06-.43.08-1.1.29-1.95l1.08,1.21,1.68-1.68,3.34-3.73,1.92,2.81,5.94-3.48-2.11-.44-2.06-2.63c.19-.14.65-.49.84-.65.31-.24.99.24,1.71.56,1.37.59,1.92-1.95,2.33-2.98,1.19.43,3.88.92,4.5-.06.11-.16-.31-1.06-.47-1.17-.22-.13.38-.98.58-.81l1.97,1.75c.44.38,1.72-.64,2.07-1.17l1.94-2.91-.85-.09c-.26-.03-.46.6-.76,1.04-1.09.7-3.06.15-3.61-2.09l4.78.32c2.4.15,7.98-1.77,8-4.61l4.32.02c.91-3.8,5.35.54,6.48-3.17.21-.69.52-1.7.95-1.88.53-.22,1.67-.28,2.19-.23l-1.19,1.72c1.29.1,3.36.14,4.31-.41.86-.49,1.39-2.05,2.12-3.63.55.36,1.66,2.77.83,3.01l-1.37.39c-.27.07-.18.66-.11.94.37,1.63,2.84-1.62,5.38-1.54l1.36-1.72,2.93,1.25-1.32-1.81,1.16-3.24,2.15.99c2.52,1.17,4.99,1.88,7.82,1.55l-.48-1.9,2.73.71c-.65-1.69-1.21-1.9-2.51-2.39,0-.43.51-1.52.98-1.51.77.01,1.89-.32,2.55-.85l1.2,2.24c.73.77,1.21,1.92,1.41,3.06l4.17-1.3,1.45-.45c.31-.1.75,1.14.63,1.11-.86.51-1.97,1.36-2.06,1.85l.56,1.13c.1.21-.47.82-.68.71l-.98-.58-1.29-.75c-.36-.2-1.01.62-1.36,1.06l-2.35,3.03-4.05.83c-.41-1.24-1.27-1.86-2.34-1.74-.77.09-1.84,1.44-1.59,1.96,4.85,1.78,3.73.36,8.1,2,.4,1.08.18,2.84-.75,3.91l-.09-3.31c-5.9-1.88-3.18,4.19-7.83,3.08l.76-.65c.11-.09.59-.34.45-.38l-1.2-.39c-.44-.15-1.67-.47-2.05-.22-.57.36-2.5,2.76-1.55,4.39-2.05.77-2.2-1.47-2.76-1.32-.23.06-.87.48-.65.63l1.11.74c.17.11-.61.5-.72.69l-.61,1.11c-.17.32.62.96.94,1.35l-7.24.82c.31.64,1.45.84,2.14.82l-.82,3.64c-1.06-.66-2.91-1.1-4.32-.18l2.96.33-.59.61c-.14.15-.46.44-.31.49l1.42.44,1.84-2.27.22,4.35-2.46.12,2.08,1.14-2.33,2.48,1.09-.24c.22-.05.48.51.58.89l.4,1.78c.15.66-1.37.7-2,1.92-.08.16.15.77.32.74l1.11-.22c.11.02.09,1.09-.16,1.05l-1.56-.29-3.28,3.67c-.35.39-1.6.63-1.65,1.1l-.19,2.4c-.78-1.07-1.75-2.19-2.8-3-.8,1.3-.64,2.47-.39,4.31l-4.34-.19c1.57,7.45,5.98,1.34,4.26,7.46.5.03,1.92-.2,2.67-.44l2.7-.86-.37,1.35h5.58c.14-.21.29-.49.5-.83l1.42.83h3.37c.77-1.19,1.14.01,3.5-1.04.14-.06.25-.12.12-.18l-.74-.35-.84-.39c-.24-.12.37-1.15.63-1.05.86.33,2.31,1.52,3.12,2.41,0,0,.6-.45.81-.62.25-.2-.47-.99-.36-1.3l.36-1.05c.1-.29-.44-.62-.92-1.09.52-.23,1.7-.17,2.29.2l1.49.94c.4.25.22,1.58.33,2.39.1.7,1.87.89,2.86.95l.1.18h3.48c.23-.36.46-.94.63-1.2,1.48-.14,2.73-1.2,3.22-2.93.2.01,1.04.4.89.6l-.96,1.21,2.07,2.32.22.25.42-.25,3.59-2.14-1.14-1.25c2.52.25,4.48.63,6.28-1.06l.92,2.08c1.34-1.07,2.49-1.91,4.01-.63l-3.25,2.33,1.59.41c.37.09.2-.88.22-1.38l1.36-.06c.29-.01.87-1.18,1.07-.98l1.06,1.01c.22.21,1.09.11,1.07-.2l-.12-1.58c-.05-.6-.07-1.71-.06-2.11l-3.13-1.51,3.49-.67c1.91-.37.55,3.44,2.68,4.71.63.37,2.23-.05,2.76-.29l-2.09-1.26,5.48-1.23-2.58-1.16,1.53-.32c.24-.05.4-.38.69-.72l3.37-.48c.66.07,2.04.38,2.67.07l2.37-1.19c1.92-.97,6.25-1.57,8.47-.14l-1.55.58c-.26.1.18,1.07.29.95l4.91-2.63-.8-1.54,2.5-2.16c1.46,1.49,3.14,2.46,5.38,1.57-.65-.35-1.36-.64-2.06-.81l-1.22-.31c-.29-.08.51-.99.82-.92.91.21,2.6-.46,3.65-1.29.42.85.85,1.84,1.21,2.32.43.56,2.36.28,3.15.07l-1.83-3.62c2.59.78,3.28,3.05,2.81,5.66-.22,1.22-1.27,2.05-2.49,2.41-.14.05-.28.1-.4.14l1.69,1.35c.3.25-.31,1.05-.38,1.46-.02.59-.1,1.54-.33,1.92-.22.37-1.14-.03-1.52-.17-1,1.31-2.56,1.36-4.42.62l-1.7,3.27c-.68.3-1.28.58-1.88.9h65.63c.67-.93,2.05-2.43,2.26-2.31l1.57.92,1.07-3.15c2.03-.27,3.45-.57,4.96-1.29l-5.09-1.14,1.29-1.57s-.39-.36-.48-.46c-1.87-1.82,3.45,1.19,4.41-4.04.95,1.11,1.65,1.9,2.56,1.94,1.23.06,1.6-1.6,1.8-2.82l2.89,2.02c.39-.98.44-1.62.83-1.71l2.29-.52c-1.5-1.52-3.59-2.38-6.08-2.89.13-1.49,5.12-3.25,3.99-7.37-.29-1.09-3.27-.77-3.41.21l-.2,1.39c-.05.31-1.12.87-1.22.59l-.5-1.3c-.34.55-.77,1.47-.99,1.28l-1.01-.89c-1-.87,2.18-1.3,1.82-3.65-.61.34-1.42.84-1.95.95l-4.11.93-.48-2.58c1.22-1.38,2.1-2.73,2.94-4.25l.74,1.62c.68,1.47,6.57-.62,8.27-3.37l2.21,2.07-1.12.35.02,2.38c1.46-1.38,2.31-3.37,2.77-5.36l2.54,2.13c-.11-2.11-1.15-2.47-2.65-3.28l2.46-.34.91,2.34c.46,1.2.3,2.8-.63,3.24l-1.28-1.81-.19,1.16c-.04.31-.64.48-1.07.7l-.92,1.23,1.95-.36-1.91,1.45-1.26.94c-.36.27.53,1.59.93,1.44,1.08-.39,3.13-.68,4.31-.6l1.99.12c.42.03.38,1.51,0,1.71-1,.47-2.67,2.03-3.45,2.98-.84-.14-2.01-.41-2.4.07-.52.66-1.01,2.16-.59,2.33.81.24,1.55.6,1.69,1.04.21.69-.32,1.53-1.2,1.78l.14,1.16c.04.29.91.59,1.03.46.35-.94,1.77-2.91,2.77-2.17,1.46,1.07,2.17,2.97,3.13,4.66l2.67-1.38,2.12,7.11c.86-1.73,1.27-2.79,1.98-2.94l.85,1.58c.14.27-1.06.23-1.77.22l-.35,4.79-1.46,1.71,2.39-.04c.36,0,1.13-.88,1.46-.75.41.17,1.33.68,1.56.84-.1.17-.19.34-.28.5h160.92l4.62-11.87c-.26-.05-.49-.14-.67-.3-.93-.84-1.46-2.38-.91-3.47l2.51.1,2.08-1.56c.21-.16.47-.36.48-.36,0-.01-.55-.05-1.02-.09-.62-.06-1.05-1.28-1.38-2.23l-1.02-.31c-.2-.06-.16-.76.05-.79,1.73-.24,3.43-1.24,4.63-1.87,1.03-.53,1.69-.8,1.7-.1l.03,1.91-1.34-.41c-.18-.05-.25.56-.17.72l.43.8-.72.24c-.32.12-.64.21-.69.24-.06.03.15.5.27.56l1.17.53c.21.1,0,.48-.15.97-.14.21-.29.36-.16.38.16.03.97.16,1.11.15l3.13-.27c.47-.04,1.08.94,1.35,1.55,1.33-1.17,3.11-2.12,4.94-2.22l.9,2.37,1.39-2.06.82.56c.19.13-.28.71-.51,1.01-.05.23-.11.53-.14.71l1.41-.15.55,2.58c.06.26.99.57,1.3.59.35.03.17-.87.19-1.28l.82-.2c.16-.05-.06-.65-.12-.89l-.22-.93c-.08-.38.58-1.17.99-1.43l.38,2.89c.52-.7.54-.78.59-.65l.36.98c.11.3.95.79,1.2.59,3.56-2.78,2.92-.71,4.36-3.15,1.95-3.29,2.8.87,5.56-1.56.66-.57.38-1.42.06-2.63-.39-1.47,1.1-3.38,1.1-5.2v-37.18c0-1.44-.56-1.64-.47-1.54-.1-.09-.41,1.91-.74,1.46l-.78-1.05c-.42-.58.84-1.64,1.54-2.14.08-.15.28-.79.15-.72-.15.09-.64.35-.81.43l-2.66,1.18-.79-1.83-1.01,1.13c-.76-.59-1.48-1.2-2-1.39-.59-.21-1.52,1.29-1.81,2.24l-1.2-.49c-.7,3.6-4.25,1.85-4.17,2.71l.1,1.01c.02.22-.4.98-.55.81l-.77-1c-1.64-2.13-3.6-1.24-3.02-2.37.06-.11.37-.58.24-.64-.48-.23-1.8-.31-1.93.06l-.89,2.43c-.33-.09-.82-.57-1.06-1.2l-2.09-1.17c-.82.49-.87,1.18-.83,2.21.02.32.55.58,1.4,1.06.61-.54.65-.55-.13.65-4.28.65,1.03-.98-4.83-.05-.38.06-.77-1.16-1.1-1.38-.33-.21-1.21-.09-1.75.01-1.59.3.46,1.62-1.97,3.51l-2.98-2.46c1.65-.93,2.91-1.37,2.56-2.83l-1.06,1.31-3.74-.89-6.51,1.99c-.03-1.43-.31-2.17-1.27-2.3-1.62-.23-1.87.48-2.46,2.21l-1.56-1.78-5-.54c-.2-.02-.75-.88-.92-.78-.17.1-.82.5-1.02.51-1.11.04-2.88-2.14-2.05-3.53-2.48-.13-4.58,1.16-5.83,3.34l-8.51-4.29-1.45,1.57-1.65-1.68c-2.27,3.2,1.74,3.54,2,5.67l-3.92-1.05.42-2.04-.45-.43c-1.06,1.98-2.67,3.32-4.36,3.78-.74-1.09-1.79-1.57-2.87-1.53-.32-.17-.91-.94-1.15-.73l-1.14,1.03c.87,1.28,1.21,2.66.19,3.9l-.61-1.09c-.18-.34-1.29-.57-1.67-.46l-1.15.29c-.96.12-1.13.15-.05.08l2.69,1.38c.65.32.66,2.17.59,2.49-2.91-1.3-.87.59-5.54.79-1.3.06.58-1.98-.37-1.99l-5.06-.11c-.98-1.74-2.08-2.25-3.82-2.05l-4.5.51c-.53.07-1.31-.51-1.94-1.12l-1.15,3.93-.73-.63.55-4.88,1.94-2.55c.32-.42,1.62-.84,2.11-.64l.8.33c.12.05.42.18.37.04l-.43-1.12c-.07-.16-.16-.35-.01-.38.15-.04.74-.19.99-.25l3.96-.86-.33,2.65-.13,1c0,.13.02.12.15.42.08.19.65-.44.75-.63l.38-.69,1.29-2.29c-.05-.07-.15-.18-.25-.29-.76-.42-1.27-.71-.76-.66,1.6-.69,2.15-.62,3.29-.08l1.49-2.52,2.02,1.59,2.66-3.33,1.25,1.99c.26.13,1.27.35,1.72.34.41,0,.9-.94.68-1.28-.24-.37-.66-.91-.47-1.05l.93-.75,1.89-1.5c.12.99-.22,2.03-.66,3.67-.13,1.57,1.34.33,3.27,1.81.3.23.64.56.71.39.08-.24.28-.6.15-.73l-.99-.89c-.45-.4-.5-.46-.33-.44l1.11.12c.1.01.52.22.72.31l1.87.79c.46.19,1.4-.63,1.55-.83-.83-.62-1.48-1.2-1.52-1.65-.04-.43,1.05-.86,1.5-1.07,1.42-.66.43-1.59,2.98-1.76.73-.05,1.78.77,2.39,1.41l.35-.61c.05-.08.24-.6.25-.69l.09-.93c0-.08-.41-.31-.48-.33l-.83-.24-.74-.22-.36-.62,3.08.3.02-.42-.62-.71,3.37.56,1.87-1.59-2.99-.55c-.48.07-.86.13-1.04.15.12-.03.36-.07.76-.14l1.64-.82c.27-.14.09-.85.12-.97,1.89,0,4.23-.05,5.67-.25,1.19-1.54,2.54-2.03,4.13-1.19l-2.51,1.14c1.31.13,2.01.12,2.98.05l1.64-.11c.43-.02.89-.99,1.2-1.29l2.79-.71c.56-.15,1.82.1,2.15.57l.74,1.02c.14.2,1.17-.14,1.14-.38l-.1-.89c-.02-.14-.13-.59,0-.51l.99.59c.32.18.63.36.7.4l.79-.99c.37-.48,1.76-.06,2.27.16l2.92-3.61c.03-.25-.09-1.05.13-1.03l1.54.18c.99.12-.69.96.12,1.6l1.01.82,1.59-2.72,4.52,1.31,1.1-2.35c2.88,1.74,3.95-1.01,4.83-.43l1.19.78.07-1.29-3.94.1c-.14-.12-.55-.48-.61-.52l1.38-.3c.36-.08.65-1.29.99-1.43,1.53-.61,4.48-1.88,6.11-2.91.55-.93,7.37,2.09,3.88-1.02l-1.9-1.69,3.27-.94c1.13-.33,2.59-.46,3.81-.61,1.49-.66-.06-3.62.65-4.58l2.46-3.35ZM375.83,5.18l-.3,1.65-2.94-.48c.59-.78,2.05-1.29,3.24-1.16ZM369.71,13.68c.31-.79,2.25-.37,3.03.11,1.14.72,1.12,1.29,1.43,3.47l2.15-1.43c.07-.11.11,2.05.02,2.47-1.98-.09-3.01-.14-4.35.91-.96-.48-2.53-1.82-3.37-2.72l1.09-2.82ZM22.89,47.67c-.97-.61-.18-2.5.79-2.84.78-.26,2.7-.42,2.99.46-.13,1.65-2.66,3.07-3.78,2.37ZM26.71,98.9h0c-.28.13-1.15.11-1.43-.01-.28-.13-.54-1.1-.26-1.25.92-.49,3.13-.74,4.86-.24l-3.16,1.5ZM71.46,87.48c-.21.1-.94.04-1.52-.05-.27-.04-.68-.91-.42-1.02.25-.12,1-.52,1.2-.38l.96.66c.2.14.01.69-.21.8ZM76.17,89.39c-.38.11-1.42-.21-1.48-.61-.06-.4.15-.98.35-1.68l-1.68-1.7c1.05-.09,1.92.11,2.72.62l.82.52c.63.39-.26,2.72-.73,2.84ZM78.93,102.84c-.04.19-.91.86-.93.69l-.09-.92-.16-1.68c-.05-.44-1.12-.39-2.13-.53.69-1.28,2.5-1.86,4.13-1.27l-.82,3.71ZM81.02,96.55c-.2.07-.07-.4.02-1.1l-2.94-.96,3.02-.77.87,2.46c.06.18-.78.29-.97.36ZM99.57,84.96l-1.15.43c-2.96,1.11-1.57,3.2-2.55,3.11l-1.4-.14c-.48-.05-1.56-.17-1.9.09-.4.32-.51,1.21-.71,1.92-5.17.33.29-3.3,1.64-6.11.39.14.89.98,1.48,2.14l2.94-2.35,1.2-.13c.25-.03.7.95.45,1.04ZM129.43,127.23l-2.84-1.7c-.15-.1.74-.9.83-.76l.91,1.37c.12.18.64-.48.83-.6.18-.11.9-.23.84-.03l-.57,1.71ZM135.09,127.13c.04.26.21,1.17.53,1.29l1.84.68-1.92,2.07c-.61.66.31,2.1,1.21,2.71l-2.42,1.29c-.28-1.38-.32-1.58-1.5-2.82,0,0,.99-.94,1.51-1.42-1.09.02-3.16-.98-3.75-1.97,1.1-.76,1.18-1.68,1.01-3.24.43-.03,1.16-.08,1.55-.15.39-.07.85-1.07,1.12-1.44l.46-.67c.08-.11.57,0,.58.14l.08,1.07c1.14-.12,2.12-1.26,2.74-2.72l1.46,4.03-1.46,2.69c-.71-1.34-1.7-1.74-3.04-1.53ZM140.61,136.61c-1.68.42-1.76.45-2.53.95l-.14-4.98c1.12.37,3.31,3.42,2.67,4.03ZM297.39,138.36l-.52.51c-.18.18-.36-.87-.52-1.31-.05-.16.85-.08,1.02-.1.25-.05.2.72.02.9ZM352.58,27.32c.77.33,2.36-.17,3.11-.58l1.16,3.68-3.19-.66,2.15,2.86-3.13-1.13c-.2-.07-.59-.67-.69-.85-.13-.22-2.03,1.74-1.53,1.88l1.85.52-3.71,1.72.47-1.72c.17-.63-1.67-2.06-1.46-2.3,1.65-1.99,2.51-4.52,4.98-3.43ZM346.21,8.55l-3.47-.64c1.21-1.27,2.59-.82,3.47.64ZM312.4,27.32l2.4,1.87c.35-.16,1.57-.86,1.72-.49.16.43.6,1.54.6,1.54-1.56.37-2.01.65-2.67,1.59l-2.57-2.62c-.34-.35.16-1.72.54-1.89ZM314.27,33.37c.61-.43,2.38.4,2.69,1.1.05,0,.21-1.17.37-1.57l1.49-3.74c1.33.19.23,3.16,1.45,3.96,1.01.66,1.09-1.05,3.04,0,.24.12.24-.84.3-1.09.07-.32-.74-.32-1.29-.4-.35-.05.38-1.35.67-1.14l1.18.89.66.5c.19.14.78-.46.62-.64l-.9-.92c2.31-.71,4.33-1.45,6.33-2.59l.94,1.06c.17.19.65-1,.46-1.1l-3.34-1.35c2.02-.92,3.77-1.36,6.24-1.54-.27.49-.49.89-.55.98l2.24,1.52c2.69-.28,5.64-2.84,5.81-5.71.65.13,1.46.16,2.07.06.49-.09.87.75,1.26,1.6l.6-.59c.15-.15.86-.16.8.02l-.65,2.22c-.16.51,1.06,1.14,1.66,1.85l-1.42,1.15c-.35.28-.23,1.31-.26,1.95-1.26.99-2.14,2.58-1.76,4.22l2.12.11-.66,2.79,1.11.42c.24.09.25.67.11.9-.14.22-.9.4-1.14.32l-2.84-.96-.47,3.65c-.13,1-1.92,2.8-2.91,1.64-.79-.92-.99-2.74-1.28-4.19-1.49.18-2.52,1.57-3.04,3.26-.58-.22-1.79-.97-2.24-.65l-1.09.75c-.19.14-.51-.57-.53-.8l-.13-1.38c-1.21,1.31-3.69,2.17-5.11,1.42l-.55-1.68c-.47-1.48-4,1.33-6.07-2.6l-1.44,3.74c-.15.4-1.85.64-1.97.25l-.48-1.59c-.3-.99,2.84-.94,2.31-2.74-.12-.4-.87-1.26-1.11-1.18-1.35.32-3.1.56-4.42.72-1.24.16-2.25,1.12-3.73.52l4.85-3.42ZM326.67,53.53l.19,3.37-2.39.12,1.47-3.8c.46-.17-1.09-.78-1.49-.52-1.12.69-1.74,2.79-2.32,2.35l-.99-.75c-.23-.18.47-.86.75-1.25l-1.3-2.99-3.63.24c-.21.02-.67.76-.83.91-.22.2-.8.17-.82-.13l-.07-1.53,6.26-.5,1.12,3.17c.58-.62,1.05-1.98.73-2.73-.54-1.24-1.55-1.63-2.8-2.06l-3.94-1.36-3.77-1.48c.79-1.04,3.03-1.27,4.43-1.24l1.01-1.23c.26-.33,1.56-.45,1.79-.09.43.68-.08,2.42-.39,3.21,1.73.77,2.78,1.65,4.29,3.45,0-.03.31-1.16.43-1.6.31-1.16-3.13-1.52-3.09-2.47l.09-2.1.95,1.64c.16.28,1.18.25,1.24.18l-.58-1.58c-.1-.3.72-.64,1.32-.87l.34,2.35c.93-.29,1.91-.69,2.34-.32.55.45,1.17,1.83.99,2.17l-2.55.38,2.59,2.66-.67.64c-1.1,1.04,3.65-1.18,3.45-.24,1.16,1.7.82,4.47-.45,5.95-.96-.83-1.84-1.44-3.71-1.93ZM329.01,63.41l-.4,2.1c-1.24-1.75-5.38,1.47-4.79-.35.12-.38.83-1.66,1.09-1.58l1.52.38,1.15-1.08c.29-.28,1.5.12,1.43.53ZM315.69,57.12c-.1.61-.21,1.29-.36,1.26l-.84-.15c-.47-.09-1.62-.89-1.42-1.31.2-.43.85-1.11,1.25-1.34.4-.23,1.44,1.09,1.37,1.54ZM306.08,35.81l-.45,1.53c-.11.34-1.15.38-1.42.13l-1.75-1.59,3.62-.07ZM301.91,57.9l-1.57,1.53-1.38-3.35.51-.98,2.44,2.8ZM294.45,31.7l3.29-.8c.56-1.2.85-1.87,1.65-2.82l-.54,4.21c-.69-.03-.86-.02-1-.05-.2-.05-.31.7-.11.72.93.08,2.93,1.22,2.92,2.15.05,1.11-2.94,4.29-3.52,3.52l-.48-.63-2.69.56c0-1.4,0-1.64-.34-2.68l2.73-2.12-1.89-2.06ZM288.01,13.29c-.65.17-1.36.3-1.37-.02l-.07-2.19,1.44,2.21ZM285.43,11.63c1.24-.98-.45,2.82-.7,2.73l-1.55-.64c.69-.69,1.71-1.66,2.25-2.09ZM282.79,24.82c.23-.19.94,1.06,1.24,1.02l3.18-.44c.51-.07,1.17-.63,1.91-1.29.21-.23,1.03,1.35.79,1.76-.25.4-.68,1.02-1.09,1.6l-.65.89c-.28.4-1.99-2.9-3.84-1.01l-2.6-1.64,1.06-.89ZM221.48,26.78c.13.79-1.68,1.54-2.53,1.56-.98,0-2.11-.19-2.64-2.12,4.18,2,2.57-1.93,5.18.56ZM189.81,65.81c0-.46,1.69-.63,1.79-.17.13.64.34,1.76.4,2.32.06.55-1.62.57-3.17.63l1.11-.91c.29-.23-.12-1.46-.13-1.87ZM108.07,36.49c-2.99.23-6.21-.14-8.39-2.24-.42-1.26-.24-4.08.67-4.89.23-.21,1.44-.4,1.74-.51.38-.14.1-.91.09-1.6.08-.22,1.73-.21,1.73.18l.04,1.83c.08.6,1.67-.12,2.81-.69l.37,1.99c.63-.09,2.39.3,3.31,1.06l-2.36,4.88ZM116.17,63.88c-.32.31-1.15.1-2.42-.22l.5,4.1-2.41-.26c-.5-.05-.38-1.37-.58-1.86-.77-1.97-.31-3.1.82-4.69l2.75-3.88c.58.47,1.74,1.29,1.54,1.74l-.97,2.26c-.15.33,1,.87,1.21,1.18.24.37-.12,1.33-.44,1.64ZM147.09,51.63l-1.61,1.42-4.07-.04c.27-.91.35-3.16-.42-3.68l-3.59.24,1.13,2.13,1.13-1.4.45,2.2c-7.44-1.27-.66,1.5-6.14-1.3-.7-.36-.97,1.52-2.43,1.28-.21-.04-.75-.46-.65-.66l.75-1.38-3.17.85-.18-1.07c-.03-.23-.71-.11-1.28-.12-.42-.01.05-1.06.2-1.6l.35-1.21c.08-.26-.95-.33-.99-.21l-.5,3.2-3.02-3.34c-.43-.47-1.65,1.1-1.86,1.86l-.96-3.51-.74,2.56c-1.74-.64-2.13-2.4-1.3-4.39l.76,1.96,2.3-2.1c-1.13-.22-2.8-.56-3.28-.16-.56.45-.86,1.33-1.69,2.6l.1-2.86c.02-.68-1.26-1.72-1.73-2.31-.14-.18.42-.96.62-.83,2.84,1.92.82-.44,6.13,1.2,3.06-1.05-.36-4.86,1.08-6.35.37-.37,1.47.05,1.95.48l3,2.76,3.79-2.9-1.53-1.02c-.34-.22-.02-1.54.2-1.62l3.4-1.68c.48,1.44,1.68,2.85,3.47,2.51l1.05,2.33.55-1.84,2.53,1.51c.77-.41,1.66-.93,2.36-.78.91.2,1.77.93,2.2,1.81l.32-.95c.05-.15.29-.44.38-.32l.73,1.07c.21.31,1.42-.17,1.68.11l1.07,1.22,2.72-.49c.54,1.5.89,2.22,1.82,3.28l1.58-2.86,1.03,1.08c.25.26.94-.13,1.79-.36.39.59,1.12,2.65,1.11,3.62,0,.59-.99,1.51-1.65,2.23l4.89.67c.46-.68.81-2.11,1.39-2.06l2.48.22-.7,1.81,2.1-.93-.02,3.21,2.04-1.14c.44-.25,1,1.01,1.46,2.01.42-.52.61-1.96,0-2.24-1.09-.52-2.18-1.13-3.03-1.71.99-1.43,2.09-2.58,3.71-2.83.99-.14,2.29,1.55,3.05,2.65l.88-3.11c1.17.82,1.55,1.68,1.89,3.11l.79-.66c.23-.19.64.19,1.43.49l-1.35-1.68c.13-.03,1.31,0,1.77.13.44.13.78,1.43,1.22,1.68l3.77,2.02.77-1.51c.13,2.71.3,4.62.81,7.05l4.3-.58c-.86,1.11-2.43,1.57-3.61,1.68l-1.23,4.48-3.99-4.98-.79,1.52c-.28.57-1.31-1.56-1.83-1.15l-.63.49c-.17.14.98.43,1.13.52l-.97,2.25c-3.52-2.5-3.57-8.71-5.23-7.9-3.12,1.5.59,2.15-3.07,4.72-.7.48-1.78.69-2.08-.06-.2-.48-.11-1.26-.01-2.25-.89-.31-2.67-.13-4.2.31.94-1.03-.46-3.87-1.65-3.7l-4.45,3.06-1.8-1.52c-1.88,3.32-6.36,3.3-10.22,3.72ZM185.73,73.63c-.36.08-1.93-1.4-1.93-2.15,0-.9,2.15-1.77,2.57-1.36-.61,1.37-.79,2.09-.65,3.51ZM182.32,90.55c-.58-.37-1.53-1.19-2.11-1.63,1.11-.59,1.8-1.06,2.69-1.92.55-.53,2.06.51,2.08,1.27.04,1.09-1.45,3.05-2.65,2.27ZM186.54,98.09l-.52,3.08-3.37-.28.98-3.62,2.92.83ZM184.08,115.7c-.99.22-2.9.43-3.42.39l.14-2.94-1.9,2.2c-.35-.18-1.12-.66-1.46-.45-.34.21-1.15.81-1.53,1.01l-2.6,1.35-1.4-.8c-.4-.22-.9,1.3-1.02,1.76l-.32,1.2c.52-1.96-7.7.69-7.25.99l-1.8-1.17,3.47-2.16c-2.19.39-3.77,1.04-5.72,1.62l-2.72.79-3.41,1.04v-2.62l-2.99-2.82-.81.17c-.26.06-.62-.42-.74-.67-.12-.23.45-.82.71-.93l.88-.42c1.31-.64-3.38-1.29-2.69-3.81l2.82,1.37-.34-.8c-.13-.29-.33-.76-.09-.74,3.1.33,1.73,3.94,6.63,2.48l-.75,2.59c1.99.18,4.07-1.19,3.98-3.41-.62-.11-1.88-.34-1.78-.85l.52-2.57,3.97-.98-2.4-1.25c-1.21-.64,1.23-5.35,1.95-6.62l.45-.82c.07-.12.46-.14.59-.07.18.11.17.37.26,1.05l3.33.91c.24.22-.51,1.92-.79,2.08l-1.22-1.48c-.28-.34-1.54.32-1.84.71-1.05,1.4-.91,4.52.48,5.48.31.21,1.82.16,1.81-.18v-1.57l-1.4.6c-.24.1-.36-1.37-.12-1.47.82-.37,2.58-1.32,3.45-1.39l4.03.8.37-2.74-1.44,1.48c-.27-.15-.81-1.6-.35-1.88l1.5-.92c.39-.24-.94-2.89-.47-2.54l-.76-.81c1.17-.5,2.36.52,3.07,1.82,1.76,3.15-2.08,4.23-.93,4.65l1.32.48c.32.11-.31-1.37.01-1.49l1.66-.6c.44-.16.57-1.26.77-2.08.22-.85,3.1-.28,3.15.62.09,1.73-1.62,3.02-2.82,4.59,1.66,0,3.2-1.36,4.3-2.87.33-.25,2.39.58,2.49,1.22l.81,5.05-1.97.73.39,3.06,2.09-2.19c-.79,2.72-1.22,4.24-.15,6.82ZM185.36,105.73l.24-2.38c.04-.44-1.03-.65-1.86-1.16l3.08-.29.35,2.47c.08.53-1.41,1.33-1.82,1.36ZM187.85,91.05c-.09.36-1.21.2-1.24-.11-.03-.3-.06-.97.22-1.06l1.08-.38c.28-.1.06,1.03-.06,1.55ZM192.31,109.69l-1.91-2.14c-.57-.63.89-2.53,1.53-2.22l1.62,2.16-1.25,2.2ZM207.98,109.41c-3.04,1.79.47,4.4-1.82,5.16-.77.25-1.81-.35-2.08-1.27-.89-3.02-4.99.62-4.7-1.79l.47-4.01c1.02-.31,2.27.74,2.81,2.52,1.12-.59,2.52-1.79,3.3-3.1l2.03-3.4c.27-.44,1.47-.79,1.98-.63.48.17.91,1.29.88,1.96-.11,2.15-1.07,3.5-2.87,4.55ZM200.7,106.05c1.87-2,1.13-3.79,3.23-4.19.57-.11,1.37,1.58.99,2.06l-2.33,2.87c-.34.42-2.27-.71-1.89-.74ZM211.64,79.72l-1.09,3.18h-2.62l.36,1.28c.06.21-.47.53-.71.51l-3.27-2.31,1.58-1.39c.38-.43-1.03-2.13-1.54-1.97l-4.54.81c-.38.63-1.06,2.04-1.72,2.04-3.07-.03-3.81-2.86-4.33-1.99l-1.08,1.81c-.65.41-2.79-3.89-2.8-3.74l.1-1.87c-.32.86-1.59,2.3-2.52,2.17l-2.03-3.08,1.22.4c.18.06.63-.12.63-.32l-.04-2.03c1.42-.2,3.46-.33,4.38-1.05,1.6-1.25,1.76-3.7,1.1-5.47l2.16-2.22-2.27.12c1.21-2.11,3.28-2.26,4.79-1.03l.74-2.2,1.76,1.27c.39.28,1.44-.36,2-.71l-2.66-1.78c1.2-.99,2.18-2.6,1.86-3.48-1.34-.44-2.2-.72-2.87-1.48-.44-.52-.62-1.56-.79-2.53-1.62-1.32-2.6-2.46-2.57-4.78l1.77-.59c1.6,2.22,3.96,2.82,6.61,2.05l4.29.52c-4.41-1.79-2.19-3.79-4.03-2.53-.18.12.14.34.62.89l-1.13.21c-.31.05-.46-1.23-.38-1.78.1-.67,1.91-.96,2.68-.63.69.28,1.15,1.33,1.78,2.58.56-.56,1.17-1.48,1.69-1.51l2.92-.13-2.23-.22c-1.68-.16.21-2.01-3.42-3.27.63-.28,1.84-.67,2.78-.81.71-.11,1.64,1.15,2.15,1.92l1.81-1.79c1.34.25,2.14.08,3.03-.55l2.44,2.33c.31-1.37.6-2.07,1.11-3.1l-.16-2.12c-.08-1-.43-2.45-.42-3.45,0-.86.04-1.54-.07-2.19-.08-.5-1.16-.96-1.85-.68-.88-.36-1.43-1.93-1.56-3.59,1.68.75,2.76,1.42,3.72,3.24l.81-1.31c.22-.37-.22-1.17-.49-1.82l4.58-1.01c1.74-.38,5.27-2.48,6.86-3.56.35-.24,1.06.58,1.45.73,1-.11,2.47-.18,3.47.25,1.57.68,1.65,2.47.36,3.88l3.25,3.64c.19.21.5.86.59,1.11.29.83-2.38.3-2.46,2.2-.7.1-2.35-.54-3.27-1.18l3.41-2.29c-1.22-2.25-3.3-1.79-5.65-1.38l.78-1.82c.19-.45-1.25-1.01-1.73-.91-.12.03-.65.26-.76.32-.11.05-.17.3-.06.36l.85.44c.19.6-.12,1.84-.68,2.14-.87.48-2.4-.19-2.85-.98l-.76-1.35c-.18-.32.86-.84.99-1.18.14-.38-1.42-.98-1.71-.68-.32.34-.81.92-1.29,1.52l-2.85,3.49c-.82,1.01-.04,3.4,1.5,4.91.72-2,1.13-3.87,1.65-6.15,1.56-.48,1.92,3.23,4.1,5.11l-1.09.71,2,2.44,1.06-1.18c.91-1.02,3.24,2.16,6.09.09l1.67,2.48,1.32-1.79c.34-.45,2.16-.41,2.4.09.39.87,1.12,1.89,2.19,2.05.83.13,1.44-.84,2.07-2.06l3.94-.71c-.05-1,.67-3.01,1.41-2.77,1.23.62,2.39,1.13,3.21.89,1.59-.47,1.8-1.49,2.16-3.06l.21-.94c.03-.15.16-.4.25-.27.13.19.44.83.63.97l2.37,1.93c.15.12.7.76.52.85l-1.21.61c.12.14,1.75.58,1.99.15l1.05-1.81c.33-.57.96-1.47,1.38-1.8.43-.33,5.48.89,7.19,1.93.3-.26.57-2.31.28-3.13-.62-1.77-5.8-3.12-1.92-3.6l.72-2.7,6.13-1.72c.38-.1,1.86.32,1.69.66l-.79,1.56,1.21,1.07c-.35.56-1,2.12-.55,2.5,3.12,1.5,4.22-3.96,6-1.47.31.44.29,1.85-.25,1.96-4.84.95-.41,3.21-4.91,3.51l-1.32-2.56c-.43.65-.79,2.28-.32,2.6l2.3,1.62c-.92.27-2.35,1.81-1.79,2.38.56.57,1.33,1.16,1.29,1.58l-.16,1.65c1.07-.24,1.83-.39,2.74-.34l-1.82,2.3c-1.35-.91-4.36-.67-4.46-.36l-.38,1.26,2.59-.23-1.36,2.5c5.12.9,4.29-1.05,7.28,1.31,1.22.97,2.56,2.43,2.54,3.68l-1.66.74c-.3.14.04.82.13,1.41l-2.17-.44c-.52-.1-.6-1.16-.88-1.77l-2.64-.12c-.63-.03-1.88.81-2.38,1.24-1.6,1.37-3.26.3-4.89.23l-4.75-.21c-.78.27-2.16,1.02-2.97,1.1-.82.09-2.48-.85-2.81-1.59l-1.21-2.79-1.24,2.14c-.3.51-2.06.48-2.83.48l-7.53.07c-.23,0-.88.45-1.06.61-.24.19-.63-.74-1.03-1.39-.9.37-1.73,1.62-2.54,3.16-1.1.1-2.25-1.86-3.06-2.93-1.11-1.48-4.23.33-4.9,1.47l1.39,2.2c-4.72-.02-8.84.21-13.19,1.14l2.23.13c.43.03.88.55,1.4,1.13l-2.52,1.63.52,1.06c.07.13-.25.25-.52.37-.6-.61-2.55-1.66-3.15-1.02-1.59,1.71-2.43,3.78-3.24,5.68l-2.02-1.63c-.29.51-.11,1.81.28,2.15.45.4,2.3.25,2.67-.27.88-1.21,2.05-2.97,3.46-4.21,1.13,2.12-.9,2.88-1.77,4.2l-3.2,4.9c-.3.45-.7,2-.28,2.23l1.88,1.09-.39,3.49c-.09.82-.92,2.49-1.36,3.57-.3.12-1.17-.49-1.91-1.11-.07.2-.25.76-.45,1.34-.21.03-1.26-.36-1.66-.67-2.11-1.58,2.84-4.01,3.02-6.24-5.3.89-3.73,4.67-5.79,5.1ZM283.9,57.49c-.12-.76-.96-1.79-1.48-1.71l-1.26.19c-.23.03-.46-.74-.25-.83,2.27-.98,4.13.93,5.59,2.73l-2.66,2.1c.07-1.69.15-1.96.07-2.48ZM278.8,60.79c-1.42,1.07-3.22,1.31-4.84.08,1.41-1.27,3.41-.89,4.84-.08ZM216.45,132.02c.12,1,.19,1.58.14,3.06l-2.85-4.71,2.93-.02.69-3.61c-1.91.2-3.03-.65-3.26-2.53l2.77,1.6.32-2.33c5.27,4.03,2.31,4.66,3.08,5.41l1.33,1.29c-2.62,2.11-3-.68-5.15,1.85ZM217.67,117.46l2.01,2.88c-.63.35-2.33,1.04-3.29,1.16-.74-1.49.29-3.29,1.28-4.04ZM228.01,122.65c-1.69,1.82-3.9.73-4.68-1.31l2.12-1-.83,1.38,3.23.84c1.02.14,1.33.2.16.09ZM239.71,130.68l-1.99.86.31-1.65c.08-.4-.72-.93-1.21-1.39l1.14-1.68,1.69,2.64c.15.24.32,1.1.06,1.21ZM268.49,110.52l-.39-1.94,3.87-1.13c-.21,2.04-1.35,2.21-3.47,3.07ZM289.41,122.4c-.24-.04-.39.11-1.26.43l1.57-2.89.92,2.62-1.23-.17ZM334.93,101.59l-4.31-2.12-3.05,1.31,1.52,1.37c-1.41.43-3.9.7-5.02.16-.65-3.16-1.62-5.69-5.52-5.46l-1.95,2.3c-.63-.67-.93-2.97-.2-3.62,1.44-1.31,2.12-1.88,3.41-3.3-1.17.35-1.51.6-2.6,1.15l-1.47-2.79c-.31,1.44-.43,2.54-.59,3.89-.13,1.16-3.13,1.48-4.13,1.52-.29.97-.7,2.23-1.26,2.6-.69.44-2.5.89-3.03.29l-1.52-1.77c-.31,1.12-.31,1.43-.51,1.72-.2.28-1.26.75-1.33.73l.03-2.05c0-.42-.54-.6-1.41-1.11l-.4-2.89c-.11-.01-1.38.34-1.28.7l.42,1.58-2.7,1.9c-2.47,1.73-6.98,1.46-6.98,1.07-.24.39-.62,1.12-.89,1.76l-1.69,3.87c-.32.71-1.98-.61-2.59-1.14l-2.27-2c-.88,1.44-.19,3.21,1.36,4.6l-5.35-.91.88-2.97c.08-.25-.41-1.04-.55-.82l-.65,1.02c-.12.18-.13,1.3-.32,1.19l-1.44-.79-2.96,3.83-1.45-.76-1.49.99c-.33.22-1.61-.44-1.57-.56.49-1.45.79-2.4.95-4l-2.76,2.35-3.24-.21c-.05-1.31-2.01-2.56-2.96-2.37l-2.86.55c-1.09.66-2.32,1.28-3.37,1.62l2.2-3.38-4.83,2.56,5.19,2-3.32.68-4.25.86-4.23.58c-.5.07-1.48,1.11-1.53,1.59-.07.57.64,1.13,1.57,1.91l-2.15.93c-1.22.52-3.42-2.83-4.97-.89-.29.36.09,1.07.25,1.49l-4.16.94c-1.48-1-3.03-2.39-4.48-1.16-.39-1.1-.67-2.22-1.17-2.23l-1.95-.03c.75.83,1.05,1.17,1.46,1.8l-6.19-.92-.96,3.56c-5.12.52-3.7,1.98-6.83,1.62l4.17-3.54,1.18.49c.17.07.5-.25.75-.42.22-.17-.49-.68-.8-1l1.47-3.35,1.29.51c.26.1.77-.68.59-.9l-.98-1.2,5.88,2.19c.6.22,1.92-.55,2.39-.9l.08,1.57,1-1.58c.21-.33-.38-1.23-.73-1.33-1.12.6-2.49.97-3.2.62l2.2-2.8c-1.06-.07-1.81.07-3.21.3l.08-1.74-.55-.09c-.17-.03-.67-.31-.5-.39l1.3-.64-3.58-6.52.41-1.33c-.72-.66-2.79-1.23-3.41-.46l-2.21,2.7-.69-2.89c1.42-.52,2.47-1.18,3.77-2.12l1.07.21c.24.05.21-1.23.02-1.4l-1.75-1.59-.06-.02.02-.02-1.29-1.17c-.17-.15-.77-1.1-.86-.9l-.62,1.4c-1.48,3.44-1.1-2.61-1.29-3.15l2.08-1.59.61,1.42c.1.25.86-.31,1.25-.48.2,1.59.39,2.8,1.66,3.94l1.68-2.53,1.37,2.14,1.18-2.71c.32.4.45,2.16-.08,2.65l-2.22,2.04c-.85-.91-2.31-2.27-3.46-1.06l.04.04,2.12.79c.44.17.47,1.75.84,2.06l2.11,1.83.88-1.29.28,1.56c1.98-.81,4.1-1.78,5.83-3.44l4.59-.49c-.18,1.18-.22,1.91.09,2.17l1.74-2.64,1.12,3.08,1.37-2.46.61,1.72c.11.3,1.04.2,1.68.17.39-.02.12-.6.3-1.51.7.58,1.25,1.01,1.14,1.33l-.62,1.73c.34.08,1.4-.73,2.06-1.34l1.32,1.13,4.42-1.19c-.27.94-.67,1.42-.44,1.57l1.17.79,1.19.85c.33.24,1.32-.94.97-1.14l-1.82-.98.78-1.47c.18-.36-.48-1.01-.93-1.57.02-.14.27-.82.46-.68l1.3,1.01c.48.37,1.5.96,2.03,1.1s1.17-1.27,1.49-1.89l2.78,2.04c-.16.42-.28,7.24,1.23,6.71.25-.24.94-1.38.74-1.72l-.89-1.45c-.15-.24.61-1,.47-1.27l-.89-1.87c.05-.08,1.31-.51,1.95-.68l3.63-.94-4.01-2.3,4.49-.24c1.28-.07,1.92,1.79,1.48,3.11l4.71-.51-1.13-.93c-.16-.13,0-.57.15-1.02l1.29-4.31c.13-.44,1.42-1.12,1.88-1.09.45.02,1,1,1.43,1.22,2.65,1.36,3.23-4.68,4.37-4.54.98.9,2,1.59,2.53,1.19-.05-1.81-1.56-2.03-3.34-2.36.45-2.15,7.2-.28,3.7-3.67l.33-1.28-4.13-2.92,5.69-.41.47-2.41c.09-.45.84-.33,1.47-.5-1.3-.68-1.9-1.52-1.91-3.05-.02-1.4.64-2.77,1.39-3.11l-.77-1.5c1.46,1.53,5.05,2.33,6.54,1.51,1.19.88,2.91,1.63,4.69,1.88l-.69-1.28c-.17-.32.7-1.41.95-1.14.22.24.75,1.11.97.95l1.48-1.03,1.58,2.16c.1.06.8-.48.68-.62l-.72-.75c-.22-.23.26-.8.61-1.19.21-.23,1.02-.21,1.14.08.11.3.59,1.2.39,1.47l-1.17,1.58c-.33.45.44,1.65,1.01,2.06l.83-2.24c1.94,1.51,1.62-1.21,4.9-.64.75.13,1.25.99,1.79,2.19l1.11-.88.81,2.01c.18.43,1.49.39,2.12.52l.43.57c.15.18,1.09-.1.96-.29l-.76-1.06c.62-.91,2.43,1.1,2.18,1.82l-2.75,1.13c-.66.26-.89,2.29-.3,2.67.33.2,1.29.82,1.29.86-.44.44-1.21.95-1.12,1.21l.43,1.36c-1.7.23-3.73.09-5.72-.14l-1.92,4.18.68.94c.62.84-3.09,1.36-1.66,5.02.53,1.37.89,1.94,2.32,3.42l-4.64,1.46.52-3.13c.37-2.26-.71-5.61.91-7.63.76-.93,1.73-2.18,1.82-2.87-1.59.3-2.55.21-4.28,0-.05.21.05,1.05-.25,1.15l-1.59.57,1.64.86c1.06.56-1.78,2.53.16,4.14l.51,3.06c.09.52-1.68,1.19-1.45,1.69l1.09,2.36c.5,1.08-.02,3.28-.36,4.9,2.02,1.51,4.84,1.35,7.05.35l-1.85-3.33c.27-.38.69-.81.6-1l-.48-1.05c-.78-.73,11.11,3.11,7.64,1.2l-1.43-.79c3.92-2.84,3.61,1.78,7.55-1.47l1.61,3.17,1.51-.07c.24-.01.06.52,0,1.32l2.72.19-.71,1.68c.12.29,1.71.31,1.78-.13.06-.44-.09-.85-.39-2.14,3.83.64,3.12,1.74,7.28,2.13-.2,2.6-.78,6-1.43,8.81-1.05-.72-1.52-.99-2.45-1.44ZM378.62,111.31c-.01.48-1.91.55-2.22.37l.35-2.48c.03-.27,1.89-.33,1.89.16l-.02,1.95ZM383.07,112.71c-.41-.29-.9-1.69-1.32-2.02l-4.39-3.45-5.33,2.47c-.95.44-3.24-.56-4.13-.86l-2.3,2.17c-.22,0-.76-.23-.86-.36l1.93-3.29-2.84,1.9c-4.35-1.12-4.37.82-5.81-.69-.6-.63-1.51-1.69-2.14-1.62-.63.07-1.94.63-2.51.85-.9-1.8-4.17-2.75-3.82-2.85l-1.88.57-2.23-3.31c-.18.22-.71.94-.79,1.05l-1.35-2.17c-.27-.44-1.16-.25-2.04.24l-2.2-1.56c-.71-.75.24-3.37,1.09-4.04l5.33,1c.55.1,1.5,1.1,1.99,1.45-.25-1.39-.79-2.24-1.98-3.79l2.21-1.67c.89,2.46,2.6,2.56,4.62,2.27l-1.09-1.53c-.26-.37,1.09-1.15,1.57-1.14,1.39.03,2.58.56,3.56,1.76l1.84-3.27,3.67.27.49.63c.73.89.69-1.07,4.57,0l7.11,1.96,1.98-1.8c.2.82.49,1.9,1.13,2.24.78.42,2.33.54,3.25.42l2.84,3.81-1.1,1.35c-.75.92,3.84,2.87.09,7.11l2.04.48c-.93,1.3-.7,3.13.29,4.57-.11.4-1.16,1.09-1.5.84ZM481.3,100.49c.25-.21,1.1.04,1.67.39.17.1.32.22.42.33-.79.88-1.66,1.65-2.6,2.35-.21.16-.42.31-.65.46-.2-1.2.38-2.89,1.16-3.54ZM476.56,122.64c.68.12.49,1.92-.09,3.01l-2.92-2.34c.93-.44,2.12-.82,3.01-.67ZM426.54,124.4h0c2.34,1.27.19-3.2,1.28-3.88l1.54-.97c.29-.18-.58-1.25-.44-1.56l2.32-3.61,2.56,2.67c1.05-.66,2.63-1.21,3.4-.54.66.58,1.48,1.56,2.13,2.35l.64-.86c.16-.21,1.07-.47,1.11-.22l.33,1.86s.86-.12.9-.39l.22-1.76,1.73,1.53-.24-4.39,2.91,6.5,1.86-1.2c.35-.22.86.34,1.37.81,1.02-.72,3.01-1.63,4.4-1.28,1.1.28-.79,1.62-1.61,2.72-.16.22.68,1,.87.81.26-.24.77-.84.95-1.17l.87-1.57c.18-.33,1.38.88,1.44,1.23-.01.46-.68,1.39-.35,1.75.36.4,1.28,1.43,1.28,1.43l1.22-1.48c.38-.46,1.57,2.32,1.36,2.38l-1.44.4c-.09,1.14,1.22,2.39,2.49,2.8l.99.31c1.56.5-2.53,1.49-1.73,4.34-.12.17-.7.63-.8.41l-.84-1.79c-1.47.13-3.2-.41-4.09-1.86-1.91-.47-3.88-1.21-5.7-2.03l1.59-1.33c-2.85.19-1.09,1.88-4.93,3.09l-.95,3,2.01.91-2.69,1.19c-.2-.7-.55-1.91-1.03-2.32-.6-.51-2.04-.41-3,0-2.92,1.28-2.69-1.47-5.8.4l.23-2.19c-1.12.26-2.15.22-2.95-.3l-3.33-2.22-.33-2.73c-.81.24-1.58.62-1.79.23l-1.1-2.09,1.12.62ZM414.47,113.09c.17-.59,2.12-.85,2.98-.7l5.45.94-1.12,2.93c-.06.15-.58.82-.68.73l-.95-.81v1.26c1.6-.13,2.72-.02,3.89.39l.61-.37c.12-.07.58.03.54.16-.04.2-.16.65-.27.82l-.71,1.07c-.17.25.24.71.64,1.24l.7.96c.18.25-.66,1.03-.9.84-1.62-1.26-2.49-4.31-4.58-2.92l2.79,2-1.89.17c-1.4.13-1.7-4.15-6.55-5.55l.06-3.16ZM396.45,107.83l5.43-2.91-.45,1.92c-.07.3.25.77.61,1.3.75,1.16,2.15,1.32,3.87,1.14l-3.11,3.54c-.19.34-.63-.22-1.39-1.42l-1.51,4.66-3.6-.79.42-4.42c.1-1.09.18-1.77-.25-3.03ZM464.89,43.86l-1.91-1.3c-.43-.3.68-1.73,1.2-1.83.53-.09,2.02.61,2.08,1.15.07.52-.94,2.28-1.37,1.98Z"/>
        <polygon class="cls-1" points="44.86 142.11 44.56 142.11 44.75 141.76 44.86 142.11"/>
        <path class="cls-1" d="M55.3,140.61l-.81.61c-.27.21-.74.59-1.07.9h-5.82c-.01-.23.03-.42.12-.54.34-.4,1.31-.8,1.97-.84l4.9-.32c.16-.01.83.11.72.19Z"/>
        <path class="cls-1" d="M4.66,30.4l.98,2.64c-1.25-.63-2.73-3.21-2.24-5.13.32-.37,1.69-.11,2.3.22l-1.04,2.26Z"/>
        <path class="cls-1" d="M9.82,19.7l-.67.94-.3.67-2.25.14.71-2.12.81,1.2c.49.72.43-1.05,1.71-.83h0Z"/>
        <path class="cls-1" d="M11.56,49.02l-.42.89c-.56-.31-1.05-.63-1.23-.49l-1.06.77-1.65-1.71c1.51.35,2.9.39,3.94-.62l.42,1.16h0Z"/>
      </g>
    </g>
  </g>
</svg>